<svg id="Layer_1" data-name="Layer 1" xmlns="http://www.w3.org/2000/svg" xmlns:xlink="http://www.w3.org/1999/xlink" viewBox="0 0 69.34 8.96"><defs><style>.cls-1{fill:none;}.cls-2{clip-path:url(#clip-path);}.cls-3{fill:#244f48;}</style><clipPath id="clip-path" transform="translate(6.72 -0.34)"><rect class="cls-1" y="-5.58" width="60.82" height="20.27"/></clipPath></defs><title>waveline-green</title><g class="cls-2"><path class="cls-3" d="M-2.38,2.31A4.58,4.58,0,0,1,.3,1.09,4.55,4.55,0,0,1,3,2.31,4.93,4.93,0,0,0,5.83,3.58,4.9,4.9,0,0,0,8.68,2.31a4.58,4.58,0,0,1,2.68-1.22A4.58,4.58,0,0,1,14,2.31a4.9,4.9,0,0,0,2.85,1.27,4.93,4.93,0,0,0,2.85-1.27,4.55,4.55,0,0,1,2.68-1.22A4.58,4.58,0,0,1,25.1,2.31a10.09,10.09,0,0,0,1.35.88h0l.29.13,0,0,.28.1.1,0,.29.06.1,0a2.56,2.56,0,0,0,.39,0h0a2.56,2.56,0,0,0,.39,0l.1,0,.29-.06.09,0,.29-.1h0l.29-.14h0a10.09,10.09,0,0,0,1.35-.88,4.58,4.58,0,0,1,2.68-1.22,4.53,4.53,0,0,1,2.68,1.22A4.93,4.93,0,0,0,39,3.58a4.87,4.87,0,0,0,2.85-1.27,4.58,4.58,0,0,1,2.68-1.22,4.53,4.53,0,0,1,2.68,1.22,4.93,4.93,0,0,0,2.85,1.27,4.9,4.9,0,0,0,2.85-1.27,4.58,4.58,0,0,1,2.68-1.22,4.55,4.55,0,0,1,2.68,1.22,4.93,4.93,0,0,0,2.85,1.27,3.29,3.29,0,0,0,1.5-.39l-.13-.72a3,3,0,0,1-1.37.35,4.63,4.63,0,0,1-2.68-1.21A4.84,4.84,0,0,0,55.59.34a4.86,4.86,0,0,0-2.85,1.27,4.6,4.6,0,0,1-2.68,1.21,4.63,4.63,0,0,1-2.68-1.21A4.84,4.84,0,0,0,44.53.34a4.86,4.86,0,0,0-2.85,1.27A4.57,4.57,0,0,1,39,2.82a4.63,4.63,0,0,1-2.68-1.21A4.81,4.81,0,0,0,33.47.34a4.86,4.86,0,0,0-2.85,1.27,8.23,8.23,0,0,1-1.49.94L29,2.61l-.19.07-.15,0-.23,0-.12,0-.36,0-.36,0-.13,0-.22,0-.16,0-.19-.07-.13-.06a8.23,8.23,0,0,1-1.49-.94A4.86,4.86,0,0,0,22.42.34a4.84,4.84,0,0,0-2.85,1.27,4.63,4.63,0,0,1-2.68,1.21,4.6,4.6,0,0,1-2.68-1.21A4.86,4.86,0,0,0,11.36.34,4.86,4.86,0,0,0,8.51,1.61,4.63,4.63,0,0,1,5.83,2.82,4.63,4.63,0,0,1,3.15,1.61,4.84,4.84,0,0,0,.3.34,4.86,4.86,0,0,0-2.55,1.61,4.6,4.6,0,0,1-5.23,2.82,3,3,0,0,1-6.6,2.47l-.12.72a3.25,3.25,0,0,0,1.49.39A4.9,4.9,0,0,0-2.38,2.31Z" transform="translate(6.72 -0.34)"/><path class="cls-3" d="M61.12,8.55a4.58,4.58,0,0,1-2.68-1.22,4.9,4.9,0,0,0-2.85-1.27,4.93,4.93,0,0,0-2.85,1.27,4.55,4.55,0,0,1-2.68,1.22,4.58,4.58,0,0,1-2.68-1.22,4.9,4.9,0,0,0-2.85-1.27,4.93,4.93,0,0,0-2.85,1.27A4.53,4.53,0,0,1,39,8.55a4.58,4.58,0,0,1-2.68-1.22,4.87,4.87,0,0,0-2.85-1.27,4.93,4.93,0,0,0-2.85,1.27,7.78,7.78,0,0,1-1.49.95L29,8.33l-.2.07-.14,0-.23.05-.12,0-.36,0a2,2,0,0,1-.36,0l-.13,0-.22-.05-.15,0-.2-.07-.13-.05a7.78,7.78,0,0,1-1.49-.95,4.93,4.93,0,0,0-2.85-1.27,4.9,4.9,0,0,0-2.85,1.27,4.58,4.58,0,0,1-2.68,1.22,4.55,4.55,0,0,1-2.68-1.22,4.93,4.93,0,0,0-2.85-1.27A4.93,4.93,0,0,0,8.51,7.33,4.58,4.58,0,0,1,5.83,8.55,4.58,4.58,0,0,1,3.15,7.33,4.9,4.9,0,0,0,.3,6.06,4.93,4.93,0,0,0-2.55,7.33,4.55,4.55,0,0,1-5.23,8.55,3,3,0,0,1-6.6,8.19l-.12.73a3.23,3.23,0,0,0,1.49.38A4.84,4.84,0,0,0-2.38,8,4.63,4.63,0,0,1,.3,6.82,4.6,4.6,0,0,1,3,8,4.86,4.86,0,0,0,5.83,9.3,4.84,4.84,0,0,0,8.68,8a4.63,4.63,0,0,1,2.68-1.21A4.63,4.63,0,0,1,14,8,4.84,4.84,0,0,0,16.89,9.3,4.86,4.86,0,0,0,19.74,8a4.6,4.6,0,0,1,2.68-1.21A4.63,4.63,0,0,1,25.1,8a9.2,9.2,0,0,0,1.35.88h0l.3.13,0,0c.1,0,.19.07.29.09l.09,0,.3.07h.09l.39,0h0l.39,0h.1l.29-.07.09,0a2.46,2.46,0,0,0,.29-.09l0,0,.29-.13h0A9.2,9.2,0,0,0,30.79,8a4.63,4.63,0,0,1,2.68-1.21A4.57,4.57,0,0,1,36.15,8,4.86,4.86,0,0,0,39,9.3,4.81,4.81,0,0,0,41.85,8a4.63,4.63,0,0,1,2.68-1.21A4.57,4.57,0,0,1,47.21,8,4.86,4.86,0,0,0,50.06,9.3,4.84,4.84,0,0,0,52.91,8a4.63,4.63,0,0,1,2.68-1.21A4.6,4.6,0,0,1,58.27,8,4.86,4.86,0,0,0,61.12,9.3a3.27,3.27,0,0,0,1.5-.38l-.13-.73A3,3,0,0,1,61.12,8.55Z" transform="translate(6.72 -0.34)"/></g></svg>